HIERARCHY
ROOT Hips
{
  OFFSET 0.569343 96.2085 60.4854
  CHANNELS 6 Xposition Yposition Zposition Zrotation Xrotation Yrotation
  JOINT Chest
  {
    OFFSET 0 10.5691 -1.07959
    CHANNELS 6 Xposition Yposition Zposition Zrotation Xrotation Yrotation
    JOINT Chest2
    {
      OFFSET 0 11.6675 1.08235
      CHANNELS 6 Xposition Yposition Zposition Zrotation Xrotation Yrotation
      JOINT Chest3
      {
        OFFSET 0 10.5876 0
        CHANNELS 6 Xposition Yposition Zposition Zrotation Xrotation Yrotation
        JOINT Chest4
        {
          OFFSET 0 10.5876 0
          CHANNELS 6 Xposition Yposition Zposition Zrotation Xrotation Yrotation
          JOINT Neck
          {
            OFFSET 0 14.88 0
            CHANNELS 6 Xposition Yposition Zposition Zrotation Xrotation Yrotation
            JOINT Head
            {
              OFFSET 0 9.61473 2.16553
              CHANNELS 6 Xposition Yposition Zposition Zrotation Xrotation Yrotation
              End Site
              {
                OFFSET 0 0 0
              }
            }
          }
          JOINT RightCollar
          {
            OFFSET -3.23953 8.30385 0
            CHANNELS 6 Xposition Yposition Zposition Zrotation Xrotation Yrotation
            JOINT RightShoulder
            {
              OFFSET -15.1725 0 0
              CHANNELS 6 Xposition Yposition Zposition Zrotation Xrotation Yrotation
              JOINT RightElbow
              {
                OFFSET -32.4113 0 0
                CHANNELS 6 Xposition Yposition Zposition Zrotation Xrotation Yrotation
                JOINT RightWrist
                {
                  OFFSET -26.4919 0 1.08131
                  CHANNELS 6 Xposition Yposition Zposition Zrotation Xrotation Yrotation
                  End Site
                  {
                    OFFSET 0 0 0
                  }
                }
              }
            }
          }
          JOINT LeftCollar
          {
            OFFSET 3.23953 8.30385 0
            CHANNELS 6 Xposition Yposition Zposition Zrotation Xrotation Yrotation
            JOINT LeftShoulder
            {
              OFFSET 15.1725 0 0
              CHANNELS 6 Xposition Yposition Zposition Zrotation Xrotation Yrotation
              JOINT LeftElbow
              {
                OFFSET 32.4113 0 0
                CHANNELS 6 Xposition Yposition Zposition Zrotation Xrotation Yrotation
                JOINT LeftWrist
                {
                  OFFSET 26.4919 0 1.0813
                  CHANNELS 6 Xposition Yposition Zposition Zrotation Xrotation Yrotation
                  End Site
                  {
                    OFFSET 0 0 0
                  }
                }
              }
            }
          }
        }
      }
    }
  }
  JOINT RightHip
  {
    OFFSET -8.63673 0.00547028 0
    CHANNELS 6 Xposition Yposition Zposition Zrotation Xrotation Yrotation
    JOINT RightKnee
    {
      OFFSET 0 -44.4933 -2.13962
      CHANNELS 6 Xposition Yposition Zposition Zrotation Xrotation Yrotation
      JOINT RightAnkle
      {
        OFFSET 0 -43.4408 -3.54051
        CHANNELS 6 Xposition Yposition Zposition Zrotation Xrotation Yrotation
        JOINT RightToe
        {
          OFFSET 0 -8.39271 19.1252
          CHANNELS 6 Xposition Yposition Zposition Zrotation Xrotation Yrotation
          End Site
          {
            OFFSET 0 0 0
          }
        }
      }
    }
  }
  JOINT LeftHip
  {
    OFFSET 8.63673 0.00547028 0
    CHANNELS 6 Xposition Yposition Zposition Zrotation Xrotation Yrotation
    JOINT LeftKnee
    {
      OFFSET 0 -44.4932 -2.13964
      CHANNELS 6 Xposition Yposition Zposition Zrotation Xrotation Yrotation
      JOINT LeftAnkle
      {
        OFFSET 0 -43.4408 -3.54051
        CHANNELS 6 Xposition Yposition Zposition Zrotation Xrotation Yrotation
        JOINT LeftToe
        {
          OFFSET 0 -8.39272 19.1252
          CHANNELS 6 Xposition Yposition Zposition Zrotation Xrotation Yrotation
          End Site
          {
            OFFSET 0 0 0
          }
        }
      }
    }
  }
}
MOTION
Frames:	5
Frame Time:	0.0333333
0.570834 96.1922 60.476 0.0150951 -0.00971556 -179.994 1.22125e-015 10.5691 -1.07959 0.00994719 -0.00654615 0.00047665 1.44329e-015 11.6675 1.08235 0.0198932 -0.0130915 -0.00261892 1.22125e-015 10.5876 -7.10543e-015 0.0198932 -0.0130915 -0.0026189 1.38778e-015 10.5876 -7.10543e-015 0.0198932 -0.0130915 -0.00261894 1.72085e-015 14.8801 -2.14973e-007 0.200327 5.21691 -0.13365 -6.05072e-015 9.61473 2.16553 -0.483817 -5.01402 0.0252662 -3.23953 8.30385 0 1.33367e-018 1.2424e-017 3.88251e-019 -15.1725 -4.76837e-006 -1.42109e-014 -3.57982 -48.9353 -4.07133 -32.4113 -3.23986e-006 -3.58495e-006 18.6044 -2.26636 1.69005 -26.4919 1.04543e-006 1.08131 -32.4025 0.640977 -3.93223 3.23953 8.30385 0 1.33367e-018 1.2424e-017 3.88251e-019 15.1725 -4.76837e-006 -7.10543e-015 2.77223 -46.8401 0.176215 32.4113 -1.67405e-006 1.56903e-007 -11.011 8.3107 2.34457 26.4919 -1.1214e-006 1.0813 20.6982 -1.22337 -4.96218 -8.63673 0.00547028 0 -3.28962 -3.61142 -2.46908 2.75758e-006 -44.4933 -2.13962 3.0335 3.47579 2.23884 -3.98762e-008 -43.4408 -3.54051 -0.470332 0.530116 -0.0467738 -4.37893e-007 -8.39271 19.1252 -0.28145 -0.794312 0.236356 8.63673 0.00547028 0 2.52201 -3.73721 1.01543 -2.05012e-006 -44.4932 -2.13964 -2.75837 3.68101 -0.743576 3.53798e-007 -43.4408 -3.54051 0.380369 -0.012608 0.239056 -4.61831e-007 -8.39272 19.1252 0.108005 0.404445 -0.725137 
0.568287 96.1722 60.4322 0.0759578 -0.0434747 -179.974 1.11022e-015 10.5691 -1.07959 0.0384245 -0.0291269 0.00047665 1.66533e-015 11.6675 1.08235 0.0768442 -0.0582513 -0.00261892 1.27676e-015 10.5876 -1.42109e-014 0.0768442 -0.0582513 -0.0026189 1.38778e-015 10.5876 0 0.0768442 -0.0582513 -0.00261894 1.79023e-015 14.8802 -2.14973e-007 0.824379 5.1069 -0.469701 -5.77316e-015 9.61473 2.16553 -1.89163 -4.40385 0.161294 -3.23953 8.30385 7.10543e-015 -1.17203e-017 4.96962e-017 6.21202e-018 -15.1725 -4.76837e-006 -7.10543e-015 -3.72903 -48.9238 -4.10227 -32.4113 -3.23986e-006 -3.58495e-006 18.0763 1.98524 1.02847 -26.4919 1.04543e-006 1.08131 -32.6762 0.026901 -1.81487 3.23953 8.30385 7.10543e-015 -1.17203e-017 4.96962e-017 6.21202e-018 15.1725 -4.76837e-006 -7.10543e-015 2.5553 -46.876 0.0572185 32.4113 -1.67405e-006 1.56903e-007 -10.9905 8.40029 2.3451 26.4919 -1.1214e-006 1.0813 20.6267 -1.22695 -5.00568 -8.63673 0.00547028 0 -2.98661 -3.81606 -2.4874 2.75758e-006 -44.4933 -2.13962 2.57188 3.81734 2.24245 -3.98762e-008 -43.4408 -3.54051 -0.842823 0.641883 -0.301747 -4.37893e-007 -8.39271 19.1252 -0.653807 -1.63186 0.985161 8.63673 0.00547028 -7.10543e-015 2.55249 -3.85305 1.03319 -2.05012e-006 -44.4932 -2.13964 -2.81156 3.89385 -0.581311 3.53798e-007 -43.4408 -3.54051 0.979149 -0.388573 0.816772 -4.61831e-007 -8.39272 19.1252 0.399929 1.00052 -2.36292 
0.547278 96.2066 60.3761 0.1298 -0.0656758 -179.963 1.22125e-015 10.5691 -1.07959 0.0305121 -0.0384752 0.00047665 1.55431e-015 11.6675 1.08235 0.0610194 -0.0769466 -0.00261892 1.22125e-015 10.5876 0 0.0610195 -0.0769467 -0.0026189 1.27676e-015 10.5876 -7.10543e-015 0.0610195 -0.0769467 -0.00261894 1.83187e-015 14.88 -2.14973e-007 0.997888 6.24169 -0.263432 -5.77316e-015 9.61473 2.16553 -1.81005 -5.84224 0.400843 -3.23953 8.30385 0 1.25575e-017 -2.48481e-017 -0 -15.1725 -4.76837e-006 -7.10543e-015 -3.45083 -48.9896 -3.96892 -32.4113 -3.23986e-006 -3.58495e-006 18.2567 0.425861 1.27445 -26.4919 1.04543e-006 1.08131 -33.8151 0.3056 -2.73743 3.23953 8.30385 0 1.25575e-017 -2.48481e-017 -0 15.1725 -4.76837e-006 -7.10543e-015 2.63281 -47.1783 -0.068238 32.4113 -1.67405e-006 1.56903e-007 -10.8053 8.72335 2.3471 26.4919 -1.1214e-006 1.0813 20.4636 -1.2455 -5.16239 -8.63673 0.00547028 -7.10543e-015 -2.76193 -3.33614 -3.31949 2.75758e-006 -44.4933 -2.13962 2.18618 2.86108 3.33202 -3.98762e-008 -43.4408 -3.54051 -0.957232 1.00785 -0.637973 -4.37893e-007 -8.39271 19.1252 -0.673743 -1.57366 1.20334 8.63673 0.00547028 -7.10543e-015 2.66893 -3.76215 1.41665 -2.05012e-006 -44.4932 -2.13964 -2.84311 3.75102 -0.898091 3.53798e-007 -43.4408 -3.54051 0.378253 -0.115194 0.283459 -4.61831e-007 -8.39272 19.1252 0.207402 0.161144 -1.13941 
0.547037 96.0213 60.3352 0.16232 -0.0928697 -179.96 1.11022e-015 10.5691 -1.07959 0.0211094 -0.0399896 0.00047665 1.55431e-015 11.6675 1.08235 0.042252 -0.0799667 -0.00258452 1.11022e-015 10.5876 -1.42109e-014 0.042252 -0.0799667 -0.0025845 1.22125e-015 10.5876 0 0.042252 -0.0799668 -0.00258453 1.77636e-015 14.8802 -2.14973e-007 1.37695 6.09689 -0.231938 -5.77316e-015 9.61473 2.16553 -2.1222 -5.61231 0.623891 -3.23953 8.30385 0 5.61751e-018 2.48481e-017 -6.21202e-018 -15.1725 -4.76837e-006 -7.10543e-015 -3.30681 -48.9578 -3.94568 -32.4113 -3.23986e-006 -3.58495e-006 18.2249 0.64603 1.22807 -26.4919 1.04543e-006 1.08131 -33.8975 0.27631 -2.63645 3.23953 8.30385 0 5.61751e-018 2.48481e-017 -6.21202e-018 15.1725 -4.76837e-006 -7.10543e-015 2.70474 -47.0563 -0.129242 32.4113 -1.67405e-006 1.56903e-007 -10.8876 8.76004 2.34733 26.4919 -1.1214e-006 1.0813 20.5247 -1.25209 -5.1779 -8.63673 0.00547028 7.10543e-015 -1.34068 -3.5515 -7.18119 2.75758e-006 -44.4933 -2.13962 -0.933071 3.10299 7.62412 -3.98762e-008 -43.4408 -3.54051 -0.470803 0.98851 -0.813284 -4.37893e-007 -8.39271 19.1252 -0.918466 -2.50895 1.02931 8.63673 0.00547028 0 2.72988 -4.59995 1.28841 -2.05012e-006 -44.4932 -2.13964 -2.92959 5.44318 -0.75812 3.53798e-007 -43.4408 -3.54051 0.641269 -1.02586 0.615058 -4.61831e-007 -8.39272 19.1252 0.328857 0.314466 -1.82137 
0.521995 96.016 60.2978 0.19167 -0.103156 -179.966 1.22125e-015 10.5691 -1.07959 0.0273577 -0.0409578 0.00047665 1.66533e-015 11.6675 1.08235 0.0542798 -0.08131 0.00423919 1.22125e-015 10.5876 -7.10543e-015 0.0542798 -0.08131 0.0042392 1.33227e-015 10.5876 -1.42109e-014 0.0542798 -0.0813101 0.0042392 1.72085e-015 14.8799 -2.14973e-007 1.6863 6.06638 -0.232259 -5.77316e-015 9.61473 2.16553 -2.57004 -5.54492 0.811332 -3.23953 8.30385 0 -4.61048e-019 4.96962e-017 -0 -15.1725 -4.76837e-006 -7.10543e-015 -3.30597 -48.9058 -3.91793 -32.4113 -3.23986e-006 -3.58495e-006 18.1653 1.31809 1.08085 -26.4919 1.04543e-006 1.08131 -33.7502 0.167754 -2.28174 3.23953 8.30385 0 -4.61048e-019 4.96962e-017 -0 15.1725 -4.76837e-006 -7.10543e-015 2.61665 -46.8961 -0.231202 32.4113 -1.67405e-006 1.56903e-007 -10.993 8.72308 2.3471 26.4919 -1.1214e-006 1.0813 20.4936 -1.24732 -5.16242 -8.63673 0.00547028 0 -1.26722 -3.48547 -7.38071 2.75758e-006 -44.4933 -2.13962 -1.05458 2.87808 7.85674 -3.98762e-008 -43.4408 -3.54051 -0.356069 1.10548 -0.785115 -4.37893e-007 -8.39271 19.1252 -0.972782 -2.7385 0.951269 8.63673 0.00547028 0 2.76143 -4.5949 1.36649 -2.05012e-006 -44.4932 -2.13964 -2.91444 5.46823 -0.955961 3.53798e-007 -43.4408 -3.54051 0.397399 -0.943712 0.343042 -4.61831e-007 -8.39272 19.1252 0.189397 0.00793885 -1.00004 
